<?xml version="1.0" encoding="utf-8"?>
<svg version="1.1" id="Layer_1"
xmlns="http://www.w3.org/2000/svg"
xmlns:xlink="http://www.w3.org/1999/xlink"
width="550px" height="400px"
xml:space="preserve">
<filter id="filter3" x="-0.529762" y="-0.529762" width="2.24375" height="2.24586" >
<feComponentTransfer in="SourceGraphic">
	<feFuncR type="linear" slope="0"/>
	<feFuncG type="linear" slope="0"/>
	<feFuncB type="linear" slope="0"/>
</feComponentTransfer>
<feGaussianBlur stdDeviation="1 1" />
<feOffset dx="2.12135" dy="2.12129"/>
<feComponentTransfer result="1">
	<feFuncR type="linear" Ue="0" intercept="0.345098"/>
	<feFuncG type="linear" Ue="0" intercept="0.419608"/>
	<feFuncB type="linear" Ue="0" intercept="0.243137"/>
	<feFuncA type="linear" xh="0" slope="0.5"/>
</feComponentTransfer>
<feComposite result="2"  in="SourceGraphic" in2="1" operator="over"/>
</filter>
<g style="filter:url(#filter3);">
<g id="PathID_1" transform="matrix(2.80747, 0, -0.00276672, 2.80747, 273.65, 180.8)" opacity="1">
<path style="fill:#80B735;fill-opacity:1" d="M7.4 -50.9L7.4 -52.4L11.3 -52.45L11.2 -59.7L12.25 -59.7L12.35 -52.45L16.25 -52.5L16.3 -51L18 -51.05L18.05 -47.25L20.6 -47.25L20.95 -22.35L27.5 -22.35L31.4 -22.45L31.3 -29.65L32.4 -29.7L32.5 -22.45L36.4 -22.5L36.4 -21L38.1 -21L38.1 1.2L44.5 1.15L44.55 5.3L59.3 5.4L59.95 10.8L89.5 10.85L82.9 59.75L-83.4 59.75L-89.5 19.45L-60.1 16.3L-59.65 2.6L-49 2.6L-49.3 -21L-27 -21.3L-27.05 -14.55L0.8 -14.9L0.7 -22.1L3.5 -22.15L3.15 -47.05L5.75 -47.05L5.7 -50.9L7.4 -50.9" />
</g>
<g id="PathID_2" transform="matrix(2.80747, 0, -0.00276672, 2.80747, 273.65, 180.8)" opacity="1">
</g>
</g>
<g id="PathID_3" transform="matrix(2.80747, 0, 0, 2.80747, 261.7, 130.05)" opacity="1">
<path style="fill:#F6FFA3;fill-opacity:1" d="M-12.75 10.3L-12.65 15.35L-14.8 15.4L-16.3 15.4L-16.4 10.35L-14.8 10.35L-12.75 10.3M-30.8 3.5L-27.15 3.45L-27.1 8.5L-30.75 8.55L-30.8 3.5M-30.7 12.1L-27.05 12.05L-27 17.15L-30.65 17.2L-30.7 12.1M-4.4 20.5L-4.3 25.55L-7.95 25.6L-8.05 20.55L-4.4 20.5M-4.5 10.35L-4.45 15.4L-8.1 15.45L-8.15 10.4L-4.5 10.35M35.5 5.9L35.4 0.8L39.05 0.75L39.15 5.85L35.5 5.9M18.2 -20.65L18.1 -25.7L21.75 -25.75L21.85 -20.7L18.2 -20.65M-39.15 3.5L-35.5 3.45L-35.4 8.5L-39.05 8.55L-39.15 3.5M-38.95 17.15L-39 12.1L-35.35 12.05L-35.3 17.1L-38.95 17.15M-35.25 20.7L-35.2 25.75L-38.85 25.8L-38.9 20.75L-35.25 20.7" />
</g>
<g id="PathID_4" transform="matrix(2.80747, 0, 0, 2.80747, 261.7, 130.05)" opacity="1">
</g>
<g id="PathID_5" transform="matrix(1.77119, 0, 0, 1.77119, 71.85, 338.4)" opacity="1">
<path style="fill:#FFFFFF;fill-opacity:1" d="M3.95 0L3.95 -36.65L17.75 -36.65Q21.4 -36.65 23.3 -36.3Q26 -35.85 27.8 -34.55Q29.65 -33.3 30.75 -31Q31.9 -28.75 31.9 -26.05Q31.9 -21.35 28.9 -18.1Q25.95 -14.9 18.15 -14.9L8.8 -14.9L8.8 0L3.95 0M8.8 -19.25L18.25 -19.25Q22.95 -19.25 24.9 -20.95Q26.9 -22.7 26.9 -25.85Q26.9 -28.15 25.7 -29.8Q24.55 -31.45 22.65 -31.95Q21.45 -32.3 18.15 -32.3L8.8 -32.3L8.8 -19.25" />
</g>
<g id="PathID_6" transform="matrix(1.77119, 0, 0, 1.77119, 71.85, 338.4)" opacity="1">
</g>
<g id="PathID_7" transform="matrix(1.77119, 0, 0, 1.77119, 132.3, 338.4)" opacity="1">
<path style="fill:#FFFFFF;fill-opacity:1" d="M3.35 0L3.35 -26.55L7.4 -26.55L7.4 -22.5Q8.9 -25.35 10.2 -26.25Q11.55 -27.15 13.1 -27.15Q15.4 -27.15 17.75 -25.7L16.15 -21.5Q14.55 -22.5 12.9 -22.5Q11.4 -22.5 10.2 -21.6Q9.05 -20.7 8.55 -19.15Q7.85 -16.75 7.85 -13.9L7.85 0L3.35 0" />
</g>
<g id="PathID_8" transform="matrix(1.77119, 0, 0, 1.77119, 132.3, 338.4)" opacity="1">
</g>
<g id="PathID_9" transform="matrix(1.77119, 0, 0, 1.77119, 162.35, 338.4)" opacity="1">
<path style="fill:#FFFFFF;fill-opacity:1" d="M1.7 -13.25Q1.7 -20.65 5.8 -24.2Q9.2 -27.15 14.15 -27.15Q19.6 -27.15 23.1 -23.55Q26.6 -19.95 26.6 -13.65Q26.6 -8.5 25.05 -5.55Q23.5 -2.65 20.55 -1Q17.6 0.6 14.15 0.6Q8.55 0.6 5.1 -2.95Q1.7 -6.55 1.7 -13.25M6.35 -13.25Q6.35 -8.15 8.55 -5.6Q10.75 -3.1 14.15 -3.1Q17.5 -3.1 19.7 -5.6Q21.95 -8.15 21.95 -13.4Q21.95 -18.3 19.7 -20.85Q17.45 -23.4 14.15 -23.4Q10.75 -23.4 8.55 -20.85Q6.35 -18.35 6.35 -13.25" />
</g>
<g id="PathID_10" transform="matrix(1.77119, 0, 0, 1.77119, 162.35, 338.4)" opacity="1">
</g>
<g id="PathID_11" transform="matrix(1.77119, 0, 0, 1.77119, 212.75, 338.4)" opacity="1">
<path style="fill:#FFFFFF;fill-opacity:1" d="M2.35 -11.8L6.95 -12.2Q7.25 -9.45 8.4 -7.65Q9.6 -5.9 12.1 -4.8Q14.6 -3.75 17.7 -3.75Q20.45 -3.75 22.55 -4.55Q24.65 -5.4 25.7 -6.8Q26.75 -8.25 26.75 -9.95Q26.75 -11.65 25.75 -12.9Q24.75 -14.2 22.45 -15.1Q21 -15.65 15.95 -16.85Q10.95 -18.1 8.95 -19.15Q6.3 -20.55 5 -22.6Q3.75 -24.65 3.75 -27.15Q3.75 -29.95 5.3 -32.35Q6.85 -34.75 9.85 -36Q12.9 -37.3 16.6 -37.3Q20.65 -37.3 23.75 -35.95Q26.85 -34.65 28.5 -32.1Q30.2 -29.55 30.35 -26.35L25.7 -26Q25.3 -29.4 23.15 -31.15Q21 -32.95 16.8 -32.95Q12.45 -32.95 10.45 -31.3Q8.45 -29.7 8.45 -27.45Q8.45 -25.45 9.85 -24.2Q11.25 -22.95 17.1 -21.6Q23 -20.25 25.2 -19.25Q28.4 -17.8 29.9 -15.5Q31.45 -13.25 31.45 -10.35Q31.45 -7.4 29.75 -4.8Q28.1 -2.25 24.95 -0.8Q21.85 0.6 17.9 0.6Q12.95 0.6 9.6 -0.85Q6.25 -2.3 4.35 -5.2Q2.45 -8.1 2.35 -11.8" />
</g>
<g id="PathID_12" transform="matrix(1.77119, 0, 0, 1.77119, 212.75, 338.4)" opacity="1">
</g>
<g id="PathID_13" transform="matrix(1.77119, 0, 0, 1.77119, 273.25, 338.4)" opacity="1">
<path style="fill:#FFFFFF;fill-opacity:1" d="M13.2 -4L13.8 -0.05Q11.9 0.35 10.4 0.35Q7.95 0.35 6.6 -0.4Q5.25 -1.2 4.7 -2.45Q4.15 -3.7 4.15 -7.75L4.15 -23.05L0.8 -23.05L0.8 -26.55L4.15 -26.55L4.15 -33.1L8.65 -35.8L8.65 -26.55L13.2 -26.55L13.2 -23.05L8.65 -23.05L8.65 -7.5Q8.65 -5.6 8.85 -5.05Q9.1 -4.5 9.65 -4.15Q10.2 -3.85 11.2 -3.85Q11.95 -3.85 13.2 -4" />
</g>
<g id="PathID_14" transform="matrix(1.77119, 0, 0, 1.77119, 273.25, 338.4)" opacity="1">
</g>
<g id="PathID_15" transform="matrix(1.77119, 0, 0, 1.77119, 298.35, 338.4)" opacity="1">
<path style="fill:#FFFFFF;fill-opacity:1" d="M20.8 0L20.8 -3.9Q17.7 0.6 12.35 0.6Q10 0.6 7.95 -0.3Q5.95 -1.2 4.95 -2.55Q3.95 -3.9 3.55 -5.9Q3.3 -7.2 3.3 -10.1L3.3 -26.55L7.8 -26.55L7.8 -11.8Q7.8 -8.3 8.05 -7.05Q8.45 -5.3 9.8 -4.3Q11.2 -3.3 13.25 -3.3Q15.25 -3.3 17 -4.3Q18.8 -5.35 19.55 -7.1Q20.3 -8.9 20.3 -12.3L20.3 -26.55L24.8 -26.55L24.8 0L20.8 0" />
</g>
<g id="PathID_16" transform="matrix(1.77119, 0, 0, 1.77119, 298.35, 338.4)" opacity="1">
</g>
<g id="PathID_17" transform="matrix(1.77119, 0, 0, 1.77119, 348.8, 338.4)" opacity="1">
<path style="fill:#FFFFFF;fill-opacity:1" d="M20.55 0L20.55 -3.35Q18 0.6 13.1 0.6Q9.95 0.6 7.25 -1.15Q4.6 -2.9 3.15 -6Q1.7 -9.15 1.7 -13.25Q1.7 -17.2 3 -20.45Q4.35 -23.7 7 -25.4Q9.65 -27.15 12.9 -27.15Q15.3 -27.15 17.15 -26.1Q19.05 -25.1 20.25 -23.45L20.25 -36.65L24.75 -36.65L24.75 0L20.55 0M6.35 -13.2Q6.35 -8.1 8.5 -5.6Q10.65 -3.1 13.6 -3.1Q16.55 -3.1 18.6 -5.5Q20.7 -7.9 20.7 -12.85Q20.7 -18.3 18.55 -20.85Q16.45 -23.4 13.35 -23.4Q10.35 -23.4 8.35 -20.95Q6.35 -18.5 6.35 -13.2" />
</g>
<g id="PathID_18" transform="matrix(1.77119, 0, 0, 1.77119, 348.8, 338.4)" opacity="1">
</g>
<g id="PathID_19" transform="matrix(1.77119, 0, 0, 1.77119, 399.25, 338.4)" opacity="1">
<path style="fill:#FFFFFF;fill-opacity:1" d="M3.4 -31.5L3.4 -36.65L7.9 -36.65L7.9 -31.5L3.4 -31.5M3.4 0L3.4 -26.55L7.9 -26.55L7.9 0L3.4 0" />
</g>
<g id="PathID_20" transform="matrix(1.77119, 0, 0, 1.77119, 399.25, 338.4)" opacity="1">
</g>
<g id="PathID_21" transform="matrix(1.77119, 0, 0, 1.77119, 419.25, 338.4)" opacity="1">
<path style="fill:#FFFFFF;fill-opacity:1" d="M20.7 -3.35Q18.2 -1.15 15.85 -0.25Q13.55 0.6 10.9 0.6Q6.55 0.6 4.2 -1.5Q1.85 -3.65 1.85 -7Q1.85 -8.95 2.7 -10.55Q3.6 -12.15 5.05 -13.1Q6.5 -14.1 8.3 -14.6Q9.6 -14.95 12.3 -15.3Q17.75 -15.95 20.3 -16.85L20.35 -18Q20.35 -20.75 19.05 -21.85Q17.35 -23.4 13.95 -23.4Q10.75 -23.4 9.25 -22.25Q7.75 -21.15 7.05 -18.35L2.65 -18.95Q3.25 -21.75 4.6 -23.5Q6 -25.25 8.6 -26.2Q11.2 -27.15 14.6 -27.15Q18 -27.15 20.1 -26.3Q22.25 -25.5 23.25 -24.3Q24.25 -23.1 24.65 -21.25Q24.9 -20.1 24.9 -17.1L24.9 -11.1Q24.9 -4.85 25.15 -3.15Q25.45 -1.5 26.3 0L21.6 0Q20.9 -1.4 20.7 -3.35M20.3 -13.3Q17.85 -12.3 12.95 -11.6Q10.15 -11.2 9 -10.7Q7.85 -10.2 7.25 -9.2Q6.65 -8.25 6.65 -7.1Q6.65 -5.3 8 -4.1Q9.35 -2.95 12 -2.95Q14.6 -2.95 16.6 -4.05Q18.65 -5.2 19.6 -7.15Q20.3 -8.65 20.3 -11.65L20.3 -13.3" />
</g>
<g id="PathID_22" transform="matrix(1.77119, 0, 0, 1.77119, 419.25, 338.4)" opacity="1">
</g>
<g id="PathID_23" transform="matrix(0.68444, 0, 0, 0.68444, 48.95, 383.05)" opacity="1">
<path style="fill:#F2F3EC;fill-opacity:1" d="M3.95 0L3.95 -36.65L17.75 -36.65Q21.4 -36.65 23.3 -36.3Q26 -35.85 27.8 -34.55Q29.65 -33.3 30.75 -31Q31.9 -28.75 31.9 -26.05Q31.9 -21.35 28.9 -18.1Q25.95 -14.9 18.15 -14.9L8.8 -14.9L8.8 0L3.95 0M8.8 -19.25L18.25 -19.25Q22.95 -19.25 24.9 -20.95Q26.9 -22.7 26.9 -25.85Q26.9 -28.15 25.7 -29.8Q24.55 -31.45 22.65 -31.95Q21.45 -32.3 18.15 -32.3L8.8 -32.3L8.8 -19.25" />
</g>
<g id="PathID_24" transform="matrix(0.68444, 0, 0, 0.68444, 48.95, 383.05)" opacity="1">
</g>
<g id="PathID_25" transform="matrix(0.68444, 0, 0, 0.68444, 71.15, 383.05)" opacity="1">
<path style="fill:#F2F3EC;fill-opacity:1" d="M20.7 -3.35Q18.2 -1.15 15.85 -0.25Q13.55 0.6 10.9 0.6Q6.55 0.6 4.2 -1.5Q1.85 -3.65 1.85 -7Q1.85 -8.95 2.7 -10.55Q3.6 -12.15 5.05 -13.1Q6.5 -14.1 8.3 -14.6Q9.6 -14.95 12.3 -15.3Q17.75 -15.95 20.3 -16.85L20.35 -18Q20.35 -20.75 19.05 -21.85Q17.35 -23.4 13.95 -23.4Q10.75 -23.4 9.25 -22.25Q7.75 -21.15 7.05 -18.35L2.65 -18.95Q3.25 -21.75 4.6 -23.5Q6 -25.25 8.6 -26.2Q11.2 -27.15 14.6 -27.15Q18 -27.15 20.1 -26.3Q22.25 -25.5 23.25 -24.3Q24.25 -23.1 24.65 -21.25Q24.9 -20.1 24.9 -17.1L24.9 -11.1Q24.9 -4.85 25.15 -3.15Q25.45 -1.5 26.3 0L21.6 0Q20.9 -1.4 20.7 -3.35M20.3 -13.3Q17.85 -12.3 12.95 -11.6Q10.15 -11.2 9 -10.7Q7.85 -10.2 7.25 -9.2Q6.65 -8.25 6.65 -7.1Q6.65 -5.3 8 -4.1Q9.35 -2.95 12 -2.95Q14.6 -2.95 16.6 -4.05Q18.65 -5.2 19.6 -7.15Q20.3 -8.65 20.3 -11.65L20.3 -13.3" />
</g>
<g id="PathID_26" transform="matrix(0.68444, 0, 0, 0.68444, 71.15, 383.05)" opacity="1">
</g>
<g id="PathID_27" transform="matrix(0.68444, 0, 0, 0.68444, 90.2, 383.05)" opacity="1">
<path style="fill:#F2F3EC;fill-opacity:1" d="M9.3 -12L9.3 -15.55Q12.1 -15.55 13.1 -15.75Q14.15 -15.95 15.05 -16.95Q16 -17.95 16 -19.45Q16 -21.25 14.75 -22.35Q13.55 -23.45 11.65 -23.45Q7.9 -23.45 6.4 -19L2.1 -19.7Q4.05 -27.15 11.7 -27.15Q15.95 -27.15 18.35 -24.8Q20.8 -22.5 20.8 -19.25Q20.8 -16 17.65 -14.1Q19.65 -13 20.65 -11.35Q21.65 -9.7 21.65 -7.4Q21.65 -3.85 19.05 -1.6Q16.45 0.6 11.75 0.6Q2.7 0.6 1.25 -7.5L5.5 -8.4Q6.05 -5.85 7.8 -4.45Q9.55 -3.05 11.85 -3.05Q14.1 -3.05 15.6 -4.3Q17.15 -5.6 17.15 -7.6Q17.15 -9.15 16.2 -10.3Q15.25 -11.45 14.15 -11.7Q13.1 -12 10.3 -12L9.3 -12" />
</g>
<g id="PathID_28" transform="matrix(0.68444, 0, 0, 0.68444, 90.2, 383.05)" opacity="1">
</g>
<g id="PathID_29" transform="matrix(0.68444, 0, 0, 0.68444, 106.25, 383.05)" opacity="1">
<path style="fill:#F2F3EC;fill-opacity:1" d="M3.4 10.2L3.4 -26.55L7.5 -26.55L7.5 -23.05Q8.95 -25.1 10.75 -26.1Q12.6 -27.15 15.2 -27.15Q18.6 -27.15 21.2 -25.4Q23.8 -23.65 25.1 -20.45Q26.45 -17.25 26.45 -13.45Q26.45 -9.4 24.95 -6.1Q23.5 -2.85 20.7 -1.1Q17.95 0.6 14.85 0.6Q12.6 0.6 10.8 -0.35Q9.05 -1.3 7.9 -2.75L7.9 10.2L3.4 10.2M7.45 -13.1Q7.45 -7.95 9.5 -5.5Q11.55 -3.1 14.5 -3.1Q17.5 -3.1 19.65 -5.6Q21.8 -8.15 21.8 -13.45Q21.8 -18.55 19.7 -21.05Q17.6 -23.6 14.7 -23.6Q11.85 -23.6 9.65 -20.9Q7.45 -18.2 7.45 -13.1" />
</g>
<g id="PathID_30" transform="matrix(0.68444, 0, 0, 0.68444, 106.25, 383.05)" opacity="1">
</g>
<g id="PathID_31" transform="matrix(0.68444, 0, 0, 0.68444, 125.75, 383.05)" opacity="1">
<path style="fill:#F2F3EC;fill-opacity:1" d="M20.7 -3.35Q18.2 -1.15 15.85 -0.25Q13.55 0.6 10.9 0.6Q6.55 0.6 4.2 -1.5Q1.85 -3.65 1.85 -7Q1.85 -8.95 2.7 -10.55Q3.6 -12.15 5.05 -13.1Q6.5 -14.1 8.3 -14.6Q9.6 -14.95 12.3 -15.3Q17.75 -15.95 20.3 -16.85L20.35 -18Q20.35 -20.75 19.05 -21.85Q17.35 -23.4 13.95 -23.4Q10.75 -23.4 9.25 -22.25Q7.75 -21.15 7.05 -18.35L2.65 -18.95Q3.25 -21.75 4.6 -23.5Q6 -25.25 8.6 -26.2Q11.2 -27.15 14.6 -27.15Q18 -27.15 20.1 -26.3Q22.25 -25.5 23.25 -24.3Q24.25 -23.1 24.65 -21.25Q24.9 -20.1 24.9 -17.1L24.9 -11.1Q24.9 -4.85 25.15 -3.15Q25.45 -1.5 26.3 0L21.6 0Q20.9 -1.4 20.7 -3.35M20.3 -13.3Q17.85 -12.3 12.95 -11.6Q10.15 -11.2 9 -10.7Q7.85 -10.2 7.25 -9.2Q6.65 -8.25 6.65 -7.1Q6.65 -5.3 8 -4.1Q9.35 -2.95 12 -2.95Q14.6 -2.95 16.6 -4.05Q18.65 -5.2 19.6 -7.15Q20.3 -8.65 20.3 -11.65L20.3 -13.3" />
</g>
<g id="PathID_32" transform="matrix(0.68444, 0, 0, 0.68444, 125.75, 383.05)" opacity="1">
</g>
<g id="PathID_33" transform="matrix(0.68444, 0, 0, 0.68444, 145.25, 383.05)" opacity="1">
<path style="fill:#F2F3EC;fill-opacity:1" d="M22.75 -37.5L26.75 -37.45Q26.45 -34.75 25.55 -33.7Q24.65 -32.65 23.2 -32.35Q21.75 -32.05 17.6 -32.05Q12.05 -32.05 10 -30.95Q8 -29.9 7.1 -27.5Q6.25 -25.15 6.15 -21.45Q7.8 -24 10.05 -25.25Q12.35 -26.55 15.2 -26.55Q20.45 -26.55 23.85 -22.95Q27.3 -19.35 27.3 -13.25Q27.3 -8.6 25.55 -5.6Q23.85 -2.65 21.45 -1Q19.1 0.6 15.05 0.6Q10.3 0.6 7.65 -1.55Q5.05 -3.7 3.65 -7.05Q2.3 -10.45 2.3 -18.8Q2.3 -29.35 5.8 -33Q9.35 -36.65 16.75 -36.65Q21.3 -36.65 21.9 -36.8Q22.55 -36.95 22.75 -37.5M22.6 -13.35Q22.6 -17.5 20.6 -20.15Q18.65 -22.8 15.1 -22.8Q11.35 -22.8 9.35 -20Q7.35 -17.2 7.35 -12.55Q7.35 -7.9 9.55 -5.45Q11.8 -3.05 15.05 -3.05Q18.4 -3.05 20.5 -5.85Q22.6 -8.7 22.6 -13.35" />
</g>
<g id="PathID_34" transform="matrix(0.68444, 0, 0, 0.68444, 145.25, 383.05)" opacity="1">
</g>
<g id="PathID_35" transform="matrix(0.68444, 0, 0, 0.68444, 165.3, 383.05)" opacity="1">
<path style="fill:#F2F3EC;fill-opacity:1" d="M1.7 -13.25Q1.7 -20.65 5.8 -24.2Q9.2 -27.15 14.15 -27.15Q19.6 -27.15 23.1 -23.55Q26.6 -19.95 26.6 -13.65Q26.6 -8.5 25.05 -5.55Q23.5 -2.65 20.55 -1Q17.6 0.6 14.15 0.6Q8.55 0.6 5.1 -2.95Q1.7 -6.55 1.7 -13.25M6.35 -13.25Q6.35 -8.15 8.55 -5.6Q10.75 -3.1 14.15 -3.1Q17.5 -3.1 19.7 -5.6Q21.95 -8.15 21.95 -13.4Q21.95 -18.3 19.7 -20.85Q17.45 -23.4 14.15 -23.4Q10.75 -23.4 8.55 -20.85Q6.35 -18.35 6.35 -13.25" />
</g>
<g id="PathID_36" transform="matrix(0.68444, 0, 0, 0.68444, 165.3, 383.05)" opacity="1">
</g>
<g id="PathID_37" transform="matrix(0.68444, 0, 0, 0.68444, 184, 383.05)" opacity="1">
<path style="fill:#F2F3EC;fill-opacity:1" d="M0.95 -26.55L22.55 -26.55L22.55 -22.8L14 -22.8L14 0L9.5 0L9.5 -22.8L0.95 -22.8L0.95 -26.55" />
</g>
<g id="PathID_38" transform="matrix(0.68444, 0, 0, 0.68444, 184, 383.05)" opacity="1">
</g>
<g id="PathID_39" transform="matrix(0.68444, 0, 0, 0.68444, 200, 383.05)" opacity="1">
<path style="fill:#F2F3EC;fill-opacity:1" d="M3.35 -26.55L7.85 -26.55L7.85 -15.1Q10 -15.1 10.85 -15.9Q11.7 -16.7 13.4 -20.7Q14.7 -23.85 15.5 -24.85Q16.35 -25.85 17.4 -26.2Q18.5 -26.55 20.9 -26.55L21.8 -26.55L21.8 -22.8L20.55 -22.85Q18.75 -22.85 18.25 -22.3Q17.75 -21.75 16.65 -19.05Q15.65 -16.45 14.8 -15.45Q13.95 -14.45 12.15 -13.65Q15.05 -12.85 17.85 -8.2L22.8 0L17.85 0L13 -8.2Q11.55 -10.7 10.45 -11.5Q9.35 -12.3 7.85 -12.3L7.85 0L3.35 0L3.35 -26.55" />
</g>
<g id="PathID_40" transform="matrix(0.68444, 0, 0, 0.68444, 200, 383.05)" opacity="1">
</g>
<g id="PathID_41" transform="matrix(0.68444, 0, 0, 0.68444, 216.05, 383.05)" opacity="1">
<path style="fill:#F2F3EC;fill-opacity:1" d="M20.7 -3.35Q18.2 -1.15 15.85 -0.25Q13.55 0.6 10.9 0.6Q6.55 0.6 4.2 -1.5Q1.85 -3.65 1.85 -7Q1.85 -8.95 2.7 -10.55Q3.6 -12.15 5.05 -13.1Q6.5 -14.1 8.3 -14.6Q9.6 -14.95 12.3 -15.3Q17.75 -15.95 20.3 -16.85L20.35 -18Q20.35 -20.75 19.05 -21.85Q17.35 -23.4 13.95 -23.4Q10.75 -23.4 9.25 -22.25Q7.75 -21.15 7.05 -18.35L2.65 -18.95Q3.25 -21.75 4.6 -23.5Q6 -25.25 8.6 -26.2Q11.2 -27.15 14.6 -27.15Q18 -27.15 20.1 -26.3Q22.25 -25.5 23.25 -24.3Q24.25 -23.1 24.65 -21.25Q24.9 -20.1 24.9 -17.1L24.9 -11.1Q24.9 -4.85 25.15 -3.15Q25.45 -1.5 26.3 0L21.6 0Q20.9 -1.4 20.7 -3.35M20.3 -13.3Q17.85 -12.3 12.95 -11.6Q10.15 -11.2 9 -10.7Q7.85 -10.2 7.25 -9.2Q6.65 -8.25 6.65 -7.1Q6.65 -5.3 8 -4.1Q9.35 -2.95 12 -2.95Q14.6 -2.95 16.6 -4.05Q18.65 -5.2 19.6 -7.15Q20.3 -8.65 20.3 -11.65L20.3 -13.3" />
</g>
<g id="PathID_42" transform="matrix(0.68444, 0, 0, 0.68444, 216.05, 383.05)" opacity="1">
</g>
<g id="PathID_43" transform="matrix(0.68444, 0, 0, 0.68444, 245.25, 383.05)" opacity="1">
<path style="fill:#F2F3EC;fill-opacity:1" d="M20.65 -9.75L25.1 -9.15Q24.35 -4.55 21.35 -1.95Q18.4 0.6 14.05 0.6Q8.65 0.6 5.35 -2.95Q2.05 -6.5 2.05 -13.15Q2.05 -17.45 3.45 -20.65Q4.85 -23.9 7.75 -25.5Q10.65 -27.15 14.05 -27.15Q18.4 -27.15 21.1 -24.95Q23.85 -22.8 24.65 -18.8L20.25 -18.1Q19.6 -20.75 18 -22.1Q16.45 -23.45 14.25 -23.45Q10.9 -23.45 8.8 -21Q6.7 -18.55 6.7 -13.3Q6.7 -7.95 8.7 -5.5Q10.75 -3.1 14 -3.1Q16.65 -3.1 18.4 -4.7Q20.15 -6.35 20.65 -9.75" />
</g>
<g id="PathID_44" transform="matrix(0.68444, 0, 0, 0.68444, 245.25, 383.05)" opacity="1">
</g>
<g id="PathID_45" transform="matrix(0.68444, 0, 0, 0.68444, 262.8, 383.05)" opacity="1">
<path style="fill:#F2F3EC;fill-opacity:1" d="M20.7 -3.35Q18.2 -1.15 15.85 -0.25Q13.55 0.6 10.9 0.6Q6.55 0.6 4.2 -1.5Q1.85 -3.65 1.85 -7Q1.85 -8.95 2.7 -10.55Q3.6 -12.15 5.05 -13.1Q6.5 -14.1 8.3 -14.6Q9.6 -14.95 12.3 -15.3Q17.75 -15.95 20.3 -16.85L20.35 -18Q20.35 -20.75 19.05 -21.85Q17.35 -23.4 13.95 -23.4Q10.75 -23.4 9.25 -22.25Q7.75 -21.15 7.05 -18.35L2.65 -18.95Q3.25 -21.75 4.6 -23.5Q6 -25.25 8.6 -26.2Q11.2 -27.15 14.6 -27.15Q18 -27.15 20.1 -26.3Q22.25 -25.5 23.25 -24.3Q24.25 -23.1 24.65 -21.25Q24.9 -20.1 24.9 -17.1L24.9 -11.1Q24.9 -4.85 25.15 -3.15Q25.45 -1.5 26.3 0L21.6 0Q20.9 -1.4 20.7 -3.35M20.3 -13.3Q17.85 -12.3 12.95 -11.6Q10.15 -11.2 9 -10.7Q7.85 -10.2 7.25 -9.2Q6.65 -8.25 6.65 -7.1Q6.65 -5.3 8 -4.1Q9.35 -2.95 12 -2.95Q14.6 -2.95 16.6 -4.05Q18.65 -5.2 19.6 -7.15Q20.3 -8.65 20.3 -11.65L20.3 -13.3" />
</g>
<g id="PathID_46" transform="matrix(0.68444, 0, 0, 0.68444, 262.8, 383.05)" opacity="1">
</g>
<g id="PathID_47" transform="matrix(0.68444, 0, 0, 0.68444, 282.3, 383.05)" opacity="1">
<path style="fill:#F2F3EC;fill-opacity:1" d="M3.4 -26.55L7.9 -26.55L7.9 -6.3L20.35 -26.55L25.2 -26.55L25.2 0L20.7 0L20.7 -20.1L8.25 0L3.4 0L3.4 -26.55M18.95 -36.35L22.05 -36.35Q21.65 -33.2 19.75 -31.5Q17.85 -29.85 14.65 -29.85Q11.45 -29.85 9.5 -31.5Q7.6 -33.15 7.25 -36.35L10.35 -36.35Q10.65 -34.6 11.7 -33.75Q12.75 -32.95 14.5 -32.95Q16.5 -32.95 17.55 -33.75Q18.6 -34.55 18.95 -36.35" />
</g>
<g id="PathID_48" transform="matrix(0.68444, 0, 0, 0.68444, 282.3, 383.05)" opacity="1">
</g>
<g id="PathID_49" transform="matrix(0.68444, 0, 0, 0.68444, 301.85, 383.05)" opacity="1">
<path style="fill:#F2F3EC;fill-opacity:1" d="M0.95 -26.55L22.55 -26.55L22.55 -22.8L14 -22.8L14 0L9.5 0L9.5 -22.8L0.95 -22.8L0.95 -26.55" />
</g>
<g id="PathID_50" transform="matrix(0.68444, 0, 0, 0.68444, 301.85, 383.05)" opacity="1">
</g>
<g id="PathID_51" transform="matrix(0.68444, 0, 0, 0.68444, 317.45, 383.05)" opacity="1">
<path style="fill:#F2F3EC;fill-opacity:1" d="M20.7 -3.35Q18.2 -1.15 15.85 -0.25Q13.55 0.6 10.9 0.6Q6.55 0.6 4.2 -1.5Q1.85 -3.65 1.85 -7Q1.85 -8.95 2.7 -10.55Q3.6 -12.15 5.05 -13.1Q6.5 -14.1 8.3 -14.6Q9.6 -14.95 12.3 -15.3Q17.75 -15.95 20.3 -16.85L20.35 -18Q20.35 -20.75 19.05 -21.85Q17.35 -23.4 13.95 -23.4Q10.75 -23.4 9.25 -22.25Q7.75 -21.15 7.05 -18.35L2.65 -18.95Q3.25 -21.75 4.6 -23.5Q6 -25.25 8.6 -26.2Q11.2 -27.15 14.6 -27.15Q18 -27.15 20.1 -26.3Q22.25 -25.5 23.25 -24.3Q24.25 -23.1 24.65 -21.25Q24.9 -20.1 24.9 -17.1L24.9 -11.1Q24.9 -4.85 25.15 -3.15Q25.45 -1.5 26.3 0L21.6 0Q20.9 -1.4 20.7 -3.35M20.3 -13.3Q17.85 -12.3 12.95 -11.6Q10.15 -11.2 9 -10.7Q7.85 -10.2 7.25 -9.2Q6.65 -8.25 6.65 -7.1Q6.65 -5.3 8 -4.1Q9.35 -2.95 12 -2.95Q14.6 -2.95 16.6 -4.05Q18.65 -5.2 19.6 -7.15Q20.3 -8.65 20.3 -11.65L20.3 -13.3" />
</g>
<g id="PathID_52" transform="matrix(0.68444, 0, 0, 0.68444, 317.45, 383.05)" opacity="1">
</g>
<g id="PathID_53" transform="matrix(0.68444, 0, 0, 0.68444, 346.65, 383.05)" opacity="1">
<path style="fill:#F2F3EC;fill-opacity:1" d="M3.4 -26.55L24.35 -26.55L24.35 0L19.85 0L19.85 -22.8L7.9 -22.8L7.9 0L3.4 0L3.4 -26.55" />
</g>
<g id="PathID_54" transform="matrix(0.68444, 0, 0, 0.68444, 346.65, 383.05)" opacity="1">
</g>
<g id="PathID_55" transform="matrix(0.68444, 0, 0, 0.68444, 365.65, 383.05)" opacity="1">
<path style="fill:#F2F3EC;fill-opacity:1" d="M1.7 -13.25Q1.7 -20.65 5.8 -24.2Q9.2 -27.15 14.15 -27.15Q19.6 -27.15 23.1 -23.55Q26.6 -19.95 26.6 -13.65Q26.6 -8.5 25.05 -5.55Q23.5 -2.65 20.55 -1Q17.6 0.6 14.15 0.6Q8.55 0.6 5.1 -2.95Q1.7 -6.55 1.7 -13.25M6.35 -13.25Q6.35 -8.15 8.55 -5.6Q10.75 -3.1 14.15 -3.1Q17.5 -3.1 19.7 -5.6Q21.95 -8.15 21.95 -13.4Q21.95 -18.3 19.7 -20.85Q17.45 -23.4 14.15 -23.4Q10.75 -23.4 8.55 -20.85Q6.35 -18.35 6.35 -13.25" />
</g>
<g id="PathID_56" transform="matrix(0.68444, 0, 0, 0.68444, 365.65, 383.05)" opacity="1">
</g>
<g id="PathID_57" transform="matrix(0.68444, 0, 0, 0.68444, 384.35, 383.05)" opacity="1">
<path style="fill:#F2F3EC;fill-opacity:1" d="M6.95 -26.55L25.45 -26.55L25.45 -3.7L28.3 -3.7L28.3 7.55L24.6 7.55L24.6 0L3.7 0L3.7 7.55L0 7.55L0 -3.7L2.4 -3.7Q7.15 -10.15 6.95 -26.55M10.7 -22.8Q10.2 -9.85 6.7 -3.7L20.95 -3.7L20.95 -22.8L10.7 -22.8" />
</g>
<g id="PathID_58" transform="matrix(0.68444, 0, 0, 0.68444, 384.35, 383.05)" opacity="1">
</g>
<g id="PathID_59" transform="matrix(0.68444, 0, 0, 0.68444, 414.5, 383.05)" opacity="1">
<path style="fill:#F2F3EC;fill-opacity:1" d="M3.35 -26.55L7.85 -26.55L7.85 -15.1Q10 -15.1 10.85 -15.9Q11.7 -16.7 13.4 -20.7Q14.7 -23.85 15.5 -24.85Q16.35 -25.85 17.4 -26.2Q18.5 -26.55 20.9 -26.55L21.8 -26.55L21.8 -22.8L20.55 -22.85Q18.75 -22.85 18.25 -22.3Q17.75 -21.75 16.65 -19.05Q15.65 -16.45 14.8 -15.45Q13.95 -14.45 12.15 -13.65Q15.05 -12.85 17.85 -8.2L22.8 0L17.85 0L13 -8.2Q11.55 -10.7 10.45 -11.5Q9.35 -12.3 7.85 -12.3L7.85 0L3.35 0L3.35 -26.55" />
</g>
<g id="PathID_60" transform="matrix(0.68444, 0, 0, 0.68444, 414.5, 383.05)" opacity="1">
</g>
<g id="PathID_61" transform="matrix(0.68444, 0, 0, 0.68444, 430.2, 383.05)" opacity="1">
<path style="fill:#F2F3EC;fill-opacity:1" d="M5.6 -26.55L26.5 -26.55L26.5 0.05L22 0.05L22 -22.8L10.1 -22.8L10.1 -9.55Q10.1 -4.95 9.75 -3.45Q9.45 -2 8.1 -0.9Q6.75 0.2 4.2 0.2Q2.65 0.2 0.6 0L0.6 -3.75L2.55 -3.75Q3.95 -3.75 4.55 -4Q5.15 -4.3 5.35 -4.9Q5.6 -5.55 5.6 -9L5.6 -26.55" />
</g>
<g id="PathID_62" transform="matrix(0.68444, 0, 0, 0.68444, 430.2, 383.05)" opacity="1">
</g>
<g id="PathID_63" transform="matrix(0.68444, 0, 0, 0.68444, 450.65, 383.05)" opacity="1">
<path style="fill:#F2F3EC;fill-opacity:1" d="M3.45 -26.55L7.95 -26.55L7.95 -15.45L13.4 -15.45Q14 -21.15 16.95 -24.15Q19.9 -27.15 24.65 -27.15Q28.65 -27.15 30.95 -25.5Q33.3 -23.9 34.8 -21.05Q36.35 -18.2 36.35 -13.35Q36.35 -6.5 33.2 -2.95Q30.1 0.6 24.75 0.6Q19.75 0.6 16.75 -2.7Q13.75 -6 13.4 -11.75L7.95 -11.75L7.95 0L3.45 0L3.45 -26.55M24.9 -23.3Q21.6 -23.3 19.75 -20.75Q17.95 -18.2 17.95 -13.65Q17.95 -8.15 19.75 -5.6Q21.6 -3.1 24.7 -3.1Q27.75 -3.1 29.7 -5.45Q31.7 -7.8 31.7 -13.05Q31.7 -18.15 30 -20.7Q28.3 -23.3 24.9 -23.3" />
</g>
<g id="PathID_64" transform="matrix(0.68444, 0, 0, 0.68444, 450.65, 383.05)" opacity="1">
</g>
<g id="PathID_65" transform="matrix(0.68444, 0, 0, 0.68444, 476.1, 383.05)" opacity="1">
<path style="fill:#F2F3EC;fill-opacity:1" d="M1.7 -26.55L6.2 -26.55L6.2 -21.5Q6.2 -18.25 6.55 -16.8Q6.95 -15.35 8.4 -14.25Q9.9 -13.2 12.15 -13.2Q14.7 -13.2 18.8 -14.5L18.8 -26.55L23.3 -26.55L23.3 0L18.8 0L18.8 -10.7Q14.6 -9.4 11 -9.4Q7.95 -9.4 5.65 -10.9Q3.35 -12.45 2.5 -14.65Q1.7 -16.9 1.7 -19.6L1.7 -26.55" />
</g>
<g id="PathID_66" transform="matrix(0.68444, 0, 0, 0.68444, 476.1, 383.05)" opacity="1">
</g>
</svg>
